<?xml version="1.0" encoding="UTF-8" standalone="no"?>
<!DOCTYPE svg PUBLIC "-//W3C//DTD SVG 1.1//EN"
 "http://www.w3.org/Graphics/SVG/1.1/DTD/svg11.dtd">
<!-- Generated by graphviz version 2.50.0 (0)
 -->
<!-- Title: G Pages: 1 -->
<svg width="382pt" height="361pt"
 viewBox="0.00 0.00 381.58 361.00" xmlns="http://www.w3.org/2000/svg" xmlns:xlink="http://www.w3.org/1999/xlink">
<g id="graph0" class="graph" transform="scale(1 1) rotate(0) translate(4 357)">
<title>G</title>
<polygon fill="white" stroke="transparent" points="-4,4 -4,-357 377.58,-357 377.58,4 -4,4"/>
<g id="clust1" class="cluster">
<title>cluster_day_1</title>
<polygon fill="none" stroke="black" points="86.49,-238 86.49,-345 276.28,-345 276.28,-238 86.49,-238"/>
<text text-anchor="middle" x="181.39" y="-329.8" font-family="Times,serif" font-size="14.00">day_1</text>
</g>
<g id="clust2" class="cluster">
<title>cluster_day_2</title>
<polygon fill="none" stroke="black" points="86.49,-123 86.49,-230 276.28,-230 276.28,-123 86.49,-123"/>
<text text-anchor="middle" x="181.39" y="-214.8" font-family="Times,serif" font-size="14.00">day_2</text>
</g>
<g id="clust3" class="cluster">
<title>cluster_day_3</title>
<polygon fill="none" stroke="black" points="86.49,-8 86.49,-115 276.28,-115 276.28,-8 86.49,-8"/>
<text text-anchor="middle" x="181.39" y="-99.8" font-family="Times,serif" font-size="14.00">day_3</text>
</g>
<!-- task_1_day_1 -->
<g id="node1" class="node">
<title>task_1_day_1</title>
<ellipse fill="cyan" stroke="black" cx="128.94" cy="-280" rx="34.39" ry="34.39"/>
<text text-anchor="middle" x="128.94" y="-276.3" font-family="Helvetica,sans-Serif" font-size="14.00">task&#45;1</text>
</g>
<!-- task_2_day_1 -->
<g id="node2" class="node">
<title>task_2_day_1</title>
<ellipse fill="cyan" stroke="black" cx="233.84" cy="-280" rx="34.39" ry="34.39"/>
<text text-anchor="middle" x="233.84" y="-276.3" font-family="Helvetica,sans-Serif" font-size="14.00">task&#45;2</text>
</g>
<!-- task_1_day_1&#45;&gt;task_2_day_1 -->
<g id="edge1" class="edge">
<title>task_1_day_1&#45;&gt;task_2_day_1</title>
<path fill="none" stroke="black" d="M163.63,-280C171.72,-280 180.47,-280 188.94,-280"/>
<polygon fill="black" stroke="black" points="189.07,-283.5 199.07,-280 189.07,-276.5 189.07,-283.5"/>
</g>
<!-- all_done -->
<g id="node8" class="node">
<title>all_done</title>
<ellipse fill="skyblue" stroke="black" cx="338.93" cy="-165" rx="34.8" ry="34.8"/>
<text text-anchor="middle" x="338.93" y="-168.8" font-family="Helvetica,sans-Serif" font-size="14.00">All</text>
<text text-anchor="middle" x="338.93" y="-153.8" font-family="Helvetica,sans-Serif" font-size="14.00">Done</text>
</g>
<!-- task_2_day_1&#45;&gt;all_done -->
<g id="edge7" class="edge">
<title>task_2_day_1&#45;&gt;all_done</title>
<path fill="none" stroke="black" d="M257.66,-254.71C263.72,-247.98 270.25,-240.72 276.28,-234 286.74,-222.34 298.18,-209.56 308.33,-198.19"/>
<polygon fill="black" stroke="black" points="311.07,-200.37 315.12,-190.58 305.85,-195.71 311.07,-200.37"/>
</g>
<!-- task_1_day_2 -->
<g id="node3" class="node">
<title>task_1_day_2</title>
<ellipse fill="cyan" stroke="black" cx="128.94" cy="-165" rx="34.39" ry="34.39"/>
<text text-anchor="middle" x="128.94" y="-161.3" font-family="Helvetica,sans-Serif" font-size="14.00">task&#45;1</text>
</g>
<!-- task_2_day_2 -->
<g id="node4" class="node">
<title>task_2_day_2</title>
<ellipse fill="cyan" stroke="black" cx="233.84" cy="-165" rx="34.39" ry="34.39"/>
<text text-anchor="middle" x="233.84" y="-161.3" font-family="Helvetica,sans-Serif" font-size="14.00">task&#45;2</text>
</g>
<!-- task_1_day_2&#45;&gt;task_2_day_2 -->
<g id="edge2" class="edge">
<title>task_1_day_2&#45;&gt;task_2_day_2</title>
<path fill="none" stroke="black" d="M163.63,-165C171.72,-165 180.47,-165 188.94,-165"/>
<polygon fill="black" stroke="black" points="189.07,-168.5 199.07,-165 189.07,-161.5 189.07,-168.5"/>
</g>
<!-- task_2_day_2&#45;&gt;all_done -->
<g id="edge8" class="edge">
<title>task_2_day_2&#45;&gt;all_done</title>
<path fill="none" stroke="black" d="M268.31,-165C276.5,-165 285.39,-165 293.99,-165"/>
<polygon fill="black" stroke="black" points="294.27,-168.5 304.27,-165 294.27,-161.5 294.27,-168.5"/>
</g>
<!-- task_1_day_3 -->
<g id="node5" class="node">
<title>task_1_day_3</title>
<ellipse fill="cyan" stroke="black" cx="128.94" cy="-50" rx="34.39" ry="34.39"/>
<text text-anchor="middle" x="128.94" y="-46.3" font-family="Helvetica,sans-Serif" font-size="14.00">task&#45;1</text>
</g>
<!-- task_2_day_3 -->
<g id="node6" class="node">
<title>task_2_day_3</title>
<ellipse fill="cyan" stroke="black" cx="233.84" cy="-50" rx="34.39" ry="34.39"/>
<text text-anchor="middle" x="233.84" y="-46.3" font-family="Helvetica,sans-Serif" font-size="14.00">task&#45;2</text>
</g>
<!-- task_1_day_3&#45;&gt;task_2_day_3 -->
<g id="edge3" class="edge">
<title>task_1_day_3&#45;&gt;task_2_day_3</title>
<path fill="none" stroke="black" d="M163.63,-50C171.72,-50 180.47,-50 188.94,-50"/>
<polygon fill="black" stroke="black" points="189.07,-53.5 199.07,-50 189.07,-46.5 189.07,-53.5"/>
</g>
<!-- task_2_day_3&#45;&gt;all_done -->
<g id="edge9" class="edge">
<title>task_2_day_3&#45;&gt;all_done</title>
<path fill="none" stroke="black" d="M257.46,-75.24C272.4,-91.9 292.12,-113.9 308.31,-131.96"/>
<polygon fill="black" stroke="black" points="305.72,-134.31 315,-139.42 310.93,-129.64 305.72,-134.31"/>
</g>
<!-- start -->
<g id="node7" class="node">
<title>start</title>
<ellipse fill="skyblue" stroke="black" cx="29.25" cy="-165" rx="29.5" ry="29.5"/>
<text text-anchor="middle" x="29.25" y="-161.3" font-family="Helvetica,sans-Serif" font-size="14.00">Start</text>
</g>
<!-- start&#45;&gt;task_1_day_1 -->
<g id="edge4" class="edge">
<title>start&#45;&gt;task_1_day_1</title>
<path fill="none" stroke="black" d="M48.21,-187.61C59.12,-201.19 73.42,-218.75 86.49,-234 90.17,-238.28 94.08,-242.75 97.97,-247.13"/>
<polygon fill="black" stroke="black" points="95.64,-249.77 104.91,-254.89 100.85,-245.11 95.64,-249.77"/>
</g>
<!-- start&#45;&gt;task_1_day_2 -->
<g id="edge5" class="edge">
<title>start&#45;&gt;task_1_day_2</title>
<path fill="none" stroke="black" d="M58.5,-165C66.52,-165 75.45,-165 84.16,-165"/>
<polygon fill="black" stroke="black" points="84.22,-168.5 94.22,-165 84.22,-161.5 84.22,-168.5"/>
</g>
<!-- start&#45;&gt;task_1_day_3 -->
<g id="edge6" class="edge">
<title>start&#45;&gt;task_1_day_3</title>
<path fill="none" stroke="black" d="M48.85,-143.1C63.16,-126.26 83.17,-102.7 99.48,-83.5"/>
<polygon fill="black" stroke="black" points="102.18,-85.73 105.99,-75.84 96.85,-81.2 102.18,-85.73"/>
</g>
</g>
</svg>
