<?xml version="1.0" encoding="UTF-8" standalone="no"?>
<!DOCTYPE svg PUBLIC "-//W3C//DTD SVG 1.1//EN"
 "http://www.w3.org/Graphics/SVG/1.1/DTD/svg11.dtd">
<!-- Generated by graphviz version 2.50.0 (0)
 -->
<!-- Title: G Pages: 1 -->
<svg width="712pt" height="204pt"
 viewBox="0.00 0.00 712.15 204.29" xmlns="http://www.w3.org/2000/svg" xmlns:xlink="http://www.w3.org/1999/xlink">
<g id="graph0" class="graph" transform="scale(1 1) rotate(0) translate(4 200.29)">
<title>G</title>
<polygon fill="white" stroke="transparent" points="-4,4 -4,-200.29 708.15,-200.29 708.15,4 -4,4"/>
<!-- check_data_date -->
<g id="node1" class="node">
<title>check_data_date</title>
<ellipse fill="aqua" stroke="black" cx="56" cy="-141.84" rx="54.39" ry="54.39"/>
<text text-anchor="middle" x="56" y="-145.64" font-family="Helvetica,sans-Serif" font-size="14.00">Check</text>
<text text-anchor="middle" x="56" y="-130.64" font-family="Helvetica,sans-Serif" font-size="14.00">Data Date</text>
</g>
<!-- wait_for -->
<g id="node2" class="node">
<title>wait_for</title>
<ellipse fill="yellow" stroke="black" cx="191.84" cy="-144.84" rx="39.79" ry="39.79"/>
<text text-anchor="middle" x="191.84" y="-141.14" font-family="Helvetica,sans-Serif" font-size="14.00">wait&#45;for</text>
</g>
<!-- check_data_date&#45;&gt;wait_for -->
<g id="edge1" class="edge">
<title>check_data_date&#45;&gt;wait_for</title>
<path fill="none" stroke="black" d="M110.67,-143.04C120.92,-143.27 131.61,-143.51 141.71,-143.74"/>
<polygon fill="black" stroke="black" points="141.91,-147.24 151.99,-143.97 142.07,-140.25 141.91,-147.24"/>
</g>
<!-- skip_wait_for -->
<g id="node3" class="node">
<title>skip_wait_for</title>
<ellipse fill="azure" stroke="black" cx="191.84" cy="-43.84" rx="43.68" ry="43.68"/>
<text text-anchor="middle" x="191.84" y="-47.64" font-family="Helvetica,sans-Serif" font-size="14.00">Skip</text>
<text text-anchor="middle" x="191.84" y="-32.64" font-family="Helvetica,sans-Serif" font-size="14.00"> waiting</text>
</g>
<!-- check_data_date&#45;&gt;skip_wait_for -->
<g id="edge2" class="edge">
<title>check_data_date&#45;&gt;skip_wait_for</title>
<path fill="none" stroke="black" d="M100.45,-110.02C115.65,-98.89 132.7,-86.41 147.86,-75.31"/>
<polygon fill="black" stroke="black" points="150.07,-78.03 156.07,-69.3 145.93,-72.39 150.07,-78.03"/>
</g>
<!-- wait_for_done -->
<g id="node4" class="node">
<title>wait_for_done</title>
<ellipse fill="azure" stroke="black" cx="330.37" cy="-93.84" rx="58.88" ry="58.88"/>
<text text-anchor="middle" x="330.37" y="-97.64" font-family="Helvetica,sans-Serif" font-size="14.00">Completed</text>
<text text-anchor="middle" x="330.37" y="-82.64" font-family="Helvetica,sans-Serif" font-size="14.00">waiting</text>
</g>
<!-- wait_for&#45;&gt;wait_for_done -->
<g id="edge3" class="edge">
<title>wait_for&#45;&gt;wait_for_done</title>
<path fill="none" stroke="black" d="M229.43,-131.17C240.63,-126.99 253.3,-122.26 265.76,-117.6"/>
<polygon fill="black" stroke="black" points="267.07,-120.85 275.22,-114.07 264.63,-114.29 267.07,-120.85"/>
</g>
<!-- skip_wait_for&#45;&gt;wait_for_done -->
<g id="edge4" class="edge">
<title>skip_wait_for&#45;&gt;wait_for_done</title>
<path fill="none" stroke="black" d="M233.43,-58.71C243.53,-62.4 254.59,-66.45 265.5,-70.45"/>
<polygon fill="black" stroke="black" points="264.43,-73.79 275.03,-73.94 266.84,-67.21 264.43,-73.79"/>
</g>
<!-- task_1 -->
<g id="node5" class="node">
<title>task_1</title>
<ellipse fill="cyan" stroke="black" cx="459.51" cy="-93.84" rx="34.39" ry="34.39"/>
<text text-anchor="middle" x="459.51" y="-90.14" font-family="Helvetica,sans-Serif" font-size="14.00">task&#45;1</text>
</g>
<!-- wait_for_done&#45;&gt;task_1 -->
<g id="edge5" class="edge">
<title>wait_for_done&#45;&gt;task_1</title>
<path fill="none" stroke="black" d="M389.36,-93.84C397.92,-93.84 406.62,-93.84 414.83,-93.84"/>
<polygon fill="black" stroke="black" points="414.92,-97.34 424.92,-93.84 414.92,-90.34 414.92,-97.34"/>
</g>
<!-- task_2 -->
<g id="node6" class="node">
<title>task_2</title>
<ellipse fill="cyan" stroke="black" cx="564.4" cy="-93.84" rx="34.39" ry="34.39"/>
<text text-anchor="middle" x="564.4" y="-90.14" font-family="Helvetica,sans-Serif" font-size="14.00">task&#45;2</text>
</g>
<!-- task_1&#45;&gt;task_2 -->
<g id="edge6" class="edge">
<title>task_1&#45;&gt;task_2</title>
<path fill="none" stroke="black" d="M494.2,-93.84C502.28,-93.84 511.03,-93.84 519.5,-93.84"/>
<polygon fill="black" stroke="black" points="519.63,-97.34 529.63,-93.84 519.63,-90.34 519.63,-97.34"/>
</g>
<!-- all_done -->
<g id="node7" class="node">
<title>all_done</title>
<ellipse fill="skyblue" stroke="black" cx="669.5" cy="-93.84" rx="34.8" ry="34.8"/>
<text text-anchor="middle" x="669.5" y="-97.64" font-family="Helvetica,sans-Serif" font-size="14.00">All</text>
<text text-anchor="middle" x="669.5" y="-82.64" font-family="Helvetica,sans-Serif" font-size="14.00">Done</text>
</g>
<!-- task_2&#45;&gt;all_done -->
<g id="edge7" class="edge">
<title>task_2&#45;&gt;all_done</title>
<path fill="none" stroke="black" d="M598.87,-93.84C607.07,-93.84 615.96,-93.84 624.56,-93.84"/>
<polygon fill="black" stroke="black" points="624.84,-97.34 634.84,-93.84 624.84,-90.34 624.84,-97.34"/>
</g>
<!-- note -->
<g id="node8" class="node">
<title>note</title>
<polygon fill="coral" stroke="black" points="106,-67.84 0,-67.84 0,-29.84 112,-29.84 112,-61.84 106,-67.84"/>
<polyline fill="none" stroke="black" points="106,-67.84 106,-61.84 "/>
<polyline fill="none" stroke="black" points="112,-61.84 106,-61.84 "/>
<text text-anchor="middle" x="56" y="-52.64" font-family="Helvetica,sans-Serif" font-size="14.00">Only one needs</text>
<text text-anchor="middle" x="56" y="-37.64" font-family="Helvetica,sans-Serif" font-size="14.00">to succeed</text>
</g>
<!-- note&#45;&gt;wait_for -->
<g id="edge9" class="edge">
<title>note&#45;&gt;wait_for</title>
<path fill="none" stroke="black" stroke-dasharray="5,2" d="M94.28,-67.87C100.33,-71.33 106.43,-75.04 112,-78.84 129.41,-90.7 147.52,-105.65 161.98,-118.32"/>
</g>
<!-- note&#45;&gt;skip_wait_for -->
<g id="edge8" class="edge">
<title>note&#45;&gt;skip_wait_for</title>
<path fill="none" stroke="black" stroke-dasharray="5,2" d="M112.21,-46.78C124.16,-46.33 136.63,-45.87 148.02,-45.44"/>
</g>
</g>
</svg>
