<?xml version="1.0" encoding="UTF-8" standalone="no"?>
<!DOCTYPE svg PUBLIC "-//W3C//DTD SVG 1.1//EN"
 "http://www.w3.org/Graphics/SVG/1.1/DTD/svg11.dtd">
<!-- Generated by graphviz version 2.50.0 (0)
 -->
<!-- Title: G Pages: 1 -->
<svg width="584pt" height="87pt"
 viewBox="0.00 0.00 584.38 87.29" xmlns="http://www.w3.org/2000/svg" xmlns:xlink="http://www.w3.org/1999/xlink">
<g id="graph0" class="graph" transform="scale(1 1) rotate(0) translate(4 83.29)">
<title>G</title>
<polygon fill="white" stroke="transparent" points="-4,4 -4,-83.29 580.38,-83.29 580.38,4 -4,4"/>
<!-- wait_for -->
<g id="node1" class="node">
<title>wait_for</title>
<ellipse fill="yellow" stroke="black" cx="221.65" cy="-39.65" rx="39.79" ry="39.79"/>
<text text-anchor="middle" x="221.65" y="-35.95" font-family="Helvetica,sans-Serif" font-size="14.00">wait&#45;for</text>
</g>
<!-- task_1 -->
<g id="node2" class="node">
<title>task_1</title>
<ellipse fill="cyan" stroke="black" cx="331.74" cy="-39.65" rx="34.39" ry="34.39"/>
<text text-anchor="middle" x="331.74" y="-35.95" font-family="Helvetica,sans-Serif" font-size="14.00">task&#45;1</text>
</g>
<!-- wait_for&#45;&gt;task_1 -->
<g id="edge1" class="edge">
<title>wait_for&#45;&gt;task_1</title>
<path fill="none" stroke="black" d="M261.37,-39.65C269.63,-39.65 278.43,-39.65 286.87,-39.65"/>
<polygon fill="black" stroke="black" points="286.95,-43.15 296.95,-39.65 286.95,-36.15 286.95,-43.15"/>
</g>
<!-- task_2 -->
<g id="node3" class="node">
<title>task_2</title>
<ellipse fill="cyan" stroke="black" cx="436.63" cy="-39.65" rx="34.39" ry="34.39"/>
<text text-anchor="middle" x="436.63" y="-35.95" font-family="Helvetica,sans-Serif" font-size="14.00">task&#45;2</text>
</g>
<!-- task_1&#45;&gt;task_2 -->
<g id="edge2" class="edge">
<title>task_1&#45;&gt;task_2</title>
<path fill="none" stroke="black" d="M366.43,-39.65C374.51,-39.65 383.26,-39.65 391.74,-39.65"/>
<polygon fill="black" stroke="black" points="391.87,-43.15 401.87,-39.65 391.87,-36.15 391.87,-43.15"/>
</g>
<!-- all_done -->
<g id="node4" class="node">
<title>all_done</title>
<ellipse fill="skyblue" stroke="black" cx="541.73" cy="-39.65" rx="34.8" ry="34.8"/>
<text text-anchor="middle" x="541.73" y="-43.45" font-family="Helvetica,sans-Serif" font-size="14.00">All</text>
<text text-anchor="middle" x="541.73" y="-28.45" font-family="Helvetica,sans-Serif" font-size="14.00">Done</text>
</g>
<!-- task_2&#45;&gt;all_done -->
<g id="edge3" class="edge">
<title>task_2&#45;&gt;all_done</title>
<path fill="none" stroke="black" d="M471.11,-39.65C479.3,-39.65 488.19,-39.65 496.79,-39.65"/>
<polygon fill="black" stroke="black" points="497.07,-43.15 507.07,-39.65 497.07,-36.15 497.07,-43.15"/>
</g>
<!-- note -->
<g id="node5" class="node">
<title>note</title>
<polygon fill="coral" stroke="black" points="140,-66.15 0,-66.15 0,-13.15 146,-13.15 146,-60.15 140,-66.15"/>
<polyline fill="none" stroke="black" points="140,-66.15 140,-60.15 "/>
<polyline fill="none" stroke="black" points="146,-60.15 140,-60.15 "/>
<text text-anchor="middle" x="73" y="-50.95" font-family="Helvetica,sans-Serif" font-size="14.00">Wait for another DAG</text>
<text text-anchor="middle" x="73" y="-35.95" font-family="Helvetica,sans-Serif" font-size="14.00">For backfill</text>
<text text-anchor="middle" x="73" y="-20.95" font-family="Helvetica,sans-Serif" font-size="14.00">may not get satisfied</text>
</g>
<!-- note&#45;&gt;wait_for -->
<g id="edge4" class="edge">
<title>note&#45;&gt;wait_for</title>
<path fill="none" stroke="black" stroke-dasharray="5,2" d="M146.03,-39.65C158.35,-39.65 170.71,-39.65 181.73,-39.65"/>
</g>
</g>
</svg>
