<?xml version="1.0" encoding="UTF-8" standalone="no"?>
<!DOCTYPE svg PUBLIC "-//W3C//DTD SVG 1.1//EN"
 "http://www.w3.org/Graphics/SVG/1.1/DTD/svg11.dtd">
<!-- Generated by graphviz version 2.50.0 (0)
 -->
<!-- Title: G Pages: 1 -->
<svg width="723pt" height="131pt"
 viewBox="0.00 0.00 722.66 131.00" xmlns="http://www.w3.org/2000/svg" xmlns:xlink="http://www.w3.org/1999/xlink">
<g id="graph0" class="graph" transform="scale(1 1) rotate(0) translate(4 127)">
<title>G</title>
<polygon fill="white" stroke="transparent" points="-4,4 -4,-127 718.66,-127 718.66,4 -4,4"/>
<g id="clust1" class="cluster">
<title>cluster_day_1</title>
<polygon fill="none" stroke="black" points="8,-8 8,-115 197.79,-115 197.79,-8 8,-8"/>
<text text-anchor="middle" x="102.89" y="-99.8" font-family="Times,serif" font-size="14.00">day_1</text>
</g>
<g id="clust2" class="cluster">
<title>cluster_day_2</title>
<polygon fill="none" stroke="black" points="217.79,-8 217.79,-115 407.58,-115 407.58,-8 217.79,-8"/>
<text text-anchor="middle" x="312.68" y="-99.8" font-family="Times,serif" font-size="14.00">day_2</text>
</g>
<g id="clust3" class="cluster">
<title>cluster_day_3</title>
<polygon fill="none" stroke="black" points="427.58,-8 427.58,-115 617.36,-115 617.36,-8 427.58,-8"/>
<text text-anchor="middle" x="522.47" y="-99.8" font-family="Times,serif" font-size="14.00">day_3</text>
</g>
<!-- task_1_day_1 -->
<g id="node1" class="node">
<title>task_1_day_1</title>
<ellipse fill="cyan" stroke="black" cx="50.45" cy="-50" rx="34.39" ry="34.39"/>
<text text-anchor="middle" x="50.45" y="-46.3" font-family="Helvetica,sans-Serif" font-size="14.00">task&#45;1</text>
</g>
<!-- task_2_day_1 -->
<g id="node2" class="node">
<title>task_2_day_1</title>
<ellipse fill="cyan" stroke="black" cx="155.34" cy="-50" rx="34.39" ry="34.39"/>
<text text-anchor="middle" x="155.34" y="-46.3" font-family="Helvetica,sans-Serif" font-size="14.00">task&#45;2</text>
</g>
<!-- task_1_day_1&#45;&gt;task_2_day_1 -->
<g id="edge1" class="edge">
<title>task_1_day_1&#45;&gt;task_2_day_1</title>
<path fill="none" stroke="black" d="M85.14,-50C93.22,-50 101.97,-50 110.44,-50"/>
<polygon fill="black" stroke="black" points="110.57,-53.5 120.57,-50 110.57,-46.5 110.57,-53.5"/>
</g>
<!-- task_1_day_2 -->
<g id="node3" class="node">
<title>task_1_day_2</title>
<ellipse fill="cyan" stroke="black" cx="260.23" cy="-50" rx="34.39" ry="34.39"/>
<text text-anchor="middle" x="260.23" y="-46.3" font-family="Helvetica,sans-Serif" font-size="14.00">task&#45;1</text>
</g>
<!-- task_2_day_1&#45;&gt;task_1_day_2 -->
<g id="edge4" class="edge">
<title>task_2_day_1&#45;&gt;task_1_day_2</title>
<path fill="none" stroke="black" d="M190.03,-50C198.12,-50 206.87,-50 215.34,-50"/>
<polygon fill="black" stroke="black" points="215.47,-53.5 225.47,-50 215.47,-46.5 215.47,-53.5"/>
</g>
<!-- task_2_day_2 -->
<g id="node4" class="node">
<title>task_2_day_2</title>
<ellipse fill="cyan" stroke="black" cx="365.13" cy="-50" rx="34.39" ry="34.39"/>
<text text-anchor="middle" x="365.13" y="-46.3" font-family="Helvetica,sans-Serif" font-size="14.00">task&#45;2</text>
</g>
<!-- task_1_day_2&#45;&gt;task_2_day_2 -->
<g id="edge2" class="edge">
<title>task_1_day_2&#45;&gt;task_2_day_2</title>
<path fill="none" stroke="black" d="M294.93,-50C303.01,-50 311.76,-50 320.23,-50"/>
<polygon fill="black" stroke="black" points="320.36,-53.5 330.36,-50 320.36,-46.5 320.36,-53.5"/>
</g>
<!-- task_1_day_3 -->
<g id="node5" class="node">
<title>task_1_day_3</title>
<ellipse fill="cyan" stroke="black" cx="470.02" cy="-50" rx="34.39" ry="34.39"/>
<text text-anchor="middle" x="470.02" y="-46.3" font-family="Helvetica,sans-Serif" font-size="14.00">task&#45;1</text>
</g>
<!-- task_2_day_2&#45;&gt;task_1_day_3 -->
<g id="edge5" class="edge">
<title>task_2_day_2&#45;&gt;task_1_day_3</title>
<path fill="none" stroke="black" d="M399.82,-50C407.9,-50 416.65,-50 425.12,-50"/>
<polygon fill="black" stroke="black" points="425.26,-53.5 435.26,-50 425.26,-46.5 425.26,-53.5"/>
</g>
<!-- task_2_day_3 -->
<g id="node6" class="node">
<title>task_2_day_3</title>
<ellipse fill="cyan" stroke="black" cx="574.92" cy="-50" rx="34.39" ry="34.39"/>
<text text-anchor="middle" x="574.92" y="-46.3" font-family="Helvetica,sans-Serif" font-size="14.00">task&#45;2</text>
</g>
<!-- task_1_day_3&#45;&gt;task_2_day_3 -->
<g id="edge3" class="edge">
<title>task_1_day_3&#45;&gt;task_2_day_3</title>
<path fill="none" stroke="black" d="M504.71,-50C512.8,-50 521.55,-50 530.02,-50"/>
<polygon fill="black" stroke="black" points="530.15,-53.5 540.15,-50 530.15,-46.5 530.15,-53.5"/>
</g>
<!-- all_done -->
<g id="node7" class="node">
<title>all_done</title>
<ellipse fill="skyblue" stroke="black" cx="680.01" cy="-50" rx="34.8" ry="34.8"/>
<text text-anchor="middle" x="680.01" y="-53.8" font-family="Helvetica,sans-Serif" font-size="14.00">All</text>
<text text-anchor="middle" x="680.01" y="-38.8" font-family="Helvetica,sans-Serif" font-size="14.00">Done</text>
</g>
<!-- task_2_day_3&#45;&gt;all_done -->
<g id="edge6" class="edge">
<title>task_2_day_3&#45;&gt;all_done</title>
<path fill="none" stroke="black" d="M609.39,-50C617.58,-50 626.47,-50 635.07,-50"/>
<polygon fill="black" stroke="black" points="635.35,-53.5 645.35,-50 635.35,-46.5 635.35,-53.5"/>
</g>
</g>
</svg>
